<svg xmlns="http://www.w3.org/2000/svg" viewBox="0 0 332 297" width="332" height="297">
	<style>
		tspan { white-space:pre }
		.shp0 { fill: #D27702 }
	</style>
	<g id="svgg">
		<path id="path0" class="shp0" d="M125.8,2.04c0.55,0.45 1.92,0.59 3.04,0.31c1.89,-0.48 8.53,2.17 10.8,4.3c0.85,0.79 -0.73,8.12 -2.81,13.09c-0.78,1.86 -1.43,3.97 -1.44,4.69c-0.04,2.14 -2.63,4.59 -5.49,5.2c-1.48,0.31 -3.31,1.12 -4.06,1.79c-1.25,1.1 -1.53,1.07 -3.12,-0.36c-2.65,-2.39 -4.23,-2.67 -7.83,-1.41c-1.81,0.63 -4.43,1.15 -5.83,1.16l-2.54,0.01l0.01,7.62c0.01,4.71 0.62,10.45 1.61,15.04c0.88,4.08 1.88,9.53 2.23,12.11c0.34,2.58 1.41,6.8 2.36,9.38c1.91,5.17 2.95,10.66 3.9,20.7c0.62,6.52 1.57,12.96 3.28,22.27c0.47,2.58 0.99,7.07 1.14,9.98c0.15,2.91 0.67,6.03 1.16,6.94c3.61,6.75 5.86,36.44 4.42,58.47c-0.24,3.65 -0.79,12.44 -1.23,19.53c-0.96,15.51 -1.79,19.58 -5.61,27.73c-4.17,8.9 -5.95,13 -6.63,15.24c-0.33,1.07 -1.6,3.11 -2.84,4.52c-1.23,1.41 -2.24,2.88 -2.24,3.28c0,0.39 -2.55,3.33 -5.66,6.53c-3.12,3.2 -6.28,6.48 -7.04,7.27c-0.76,0.8 -2.52,2.4 -3.91,3.56c-1.39,1.16 -3.51,3.01 -4.71,4.1c-1.25,1.14 -3.12,1.99 -4.39,1.99c-1.21,0 -3.13,0.73 -4.26,1.62c-1.34,1.05 -2.61,1.44 -3.66,1.11c-0.88,-0.28 -2.06,-0.13 -2.63,0.34c-1.01,0.84 -6.57,2.26 -10.87,2.77c-1.21,0.15 -3.24,0.7 -4.51,1.22c-8.79,3.64 -17.99,-0.79 -30.01,-14.43c-1.72,-1.95 -3.53,-3.55 -4.02,-3.56c-0.49,0 -1.09,-0.8 -1.34,-1.78c-0.24,-0.97 -1.51,-2.4 -2.82,-3.17c-1.31,-0.77 -2.38,-1.86 -2.38,-2.42c0,-0.56 -0.84,-2.26 -1.87,-3.78c-3,-4.42 -9.06,-22.96 -9.06,-27.71c0,-2.24 -0.54,-5.67 -1.21,-7.63c-0.66,-1.96 -0.97,-3.94 -0.69,-4.4c0.29,-0.46 0.08,-1.67 -0.46,-2.68c-0.79,-1.48 -0.79,-2.31 0.01,-4.23c0.71,-1.71 0.84,-4.57 0.47,-10c-0.67,-9.7 0.33,-15.11 3.45,-18.66c1.29,-1.47 2.35,-3.07 2.35,-3.55c0,-2.16 7.34,-11.57 9.03,-11.57c1.29,0 2.28,-1.07 3.96,-4.3c1.23,-2.36 2.5,-4.29 2.8,-4.3c0.31,0 1.77,-1.15 3.25,-2.54c1.48,-1.4 3.17,-2.89 3.75,-3.32c0.58,-0.43 3.39,-2.8 6.24,-5.27c3.55,-3.07 5.85,-4.49 7.29,-4.49c1.16,0 3.08,-0.7 4.28,-1.55c1.19,-0.85 3.79,-1.68 5.77,-1.85c1.98,-0.16 4.13,-0.74 4.78,-1.28c1.8,-1.49 7.89,-1.75 9.03,-0.38c0.52,0.63 1.51,1.14 2.19,1.14c0.68,0 1.96,0.66 2.83,1.47c0.87,0.81 3.95,3.71 6.83,6.44c2.88,2.73 6.11,5.73 7.18,6.65c1.07,0.92 2.33,3.21 2.8,5.08c0.48,1.87 1.18,4.1 1.56,4.96c2.8,6.3 2.88,10.98 0.48,26.56c-1.48,9.58 -2.48,13.21 -4,14.47c-0.64,0.53 -1.87,2.55 -2.72,4.48c-0.86,1.93 -2.7,4.83 -4.09,6.45c-1.4,1.61 -3.72,4.4 -5.16,6.19c-2.3,2.86 -2.9,3.2 -4.92,2.75c-1.37,-0.3 -2.75,-0.12 -3.44,0.44c-0.63,0.52 -3.26,1.03 -5.85,1.13c-2.59,0.1 -4.91,0.39 -5.17,0.65c-0.25,0.25 -1.21,-0.02 -2.13,-0.61c-0.92,-0.59 -3.43,-1.64 -5.58,-2.33c-4.97,-1.6 -9.56,-9.5 -8.7,-14.96c0.27,-1.67 0.71,-4.59 1,-6.5c0.28,-1.9 1.58,-5.04 2.89,-6.97l2.38,-3.52l0.7,2.09c0.74,2.21 3.84,2.96 4.94,1.19c0.34,-0.55 1.29,0.54 2.42,2.76c3.84,7.56 7.89,6.95 13.78,-2.07c6.38,-9.76 7.47,-17.79 3.09,-22.58c-1.05,-1.15 -2.56,-2.8 -3.36,-3.67c-2.9,-3.16 -11.75,-4.04 -13.95,-1.39c-0.47,0.56 -2.35,1.47 -4.18,2.01c-3.82,1.13 -3.69,1.06 -9.28,4.88c-4.75,3.24 -16.32,14.01 -16.32,15.19c0,0.43 -1.04,2.41 -2.31,4.42c-3.14,4.95 -3.59,18.67 -0.92,27.6c0.91,3.05 2,7.35 2.42,9.56c0.44,2.34 1.91,5.68 3.52,8.02c1.52,2.21 2.76,4.32 2.76,4.7c0,0.38 0.49,0.69 1.08,0.69c1.28,0 3.33,2.92 4.04,5.75c0.44,1.76 2.04,3.12 7.52,6.43c0.77,0.47 2.04,1.42 2.81,2.12c1.49,1.34 5.82,1.76 10.33,1c1.5,-0.25 3.44,-0.47 4.3,-0.48c3.08,-0.03 10.97,-2.58 12.64,-4.07c0.94,-0.84 2.08,-1.29 2.54,-1.01c0.46,0.29 0.84,0.21 0.84,-0.17c0,-1.08 4.33,-5.66 5.35,-5.66c2.56,0 6.08,-3.13 8.86,-7.86c1.14,-1.94 2.97,-4.02 4.08,-4.61c1.11,-0.59 2.02,-1.5 2.02,-2.01c0,-0.51 1.06,-2.91 2.34,-5.32c1.29,-2.42 2.34,-5.13 2.34,-6.03c0,-0.9 0.53,-2.16 1.17,-2.8c0.64,-0.64 1.18,-1.94 1.19,-2.87c0.01,-0.94 0.73,-3.27 1.59,-5.18c1.09,-2.4 1.56,-5.06 1.54,-8.59c-0.02,-2.82 -0.04,-6.97 -0.05,-9.23c0,-2.26 0.52,-6.37 1.16,-9.13c1.27,-5.46 1.08,-27.93 -0.27,-31.69c-1.1,-3.08 -2.25,-9.83 -3.25,-19.09c-0.51,-4.7 -1.58,-10.45 -2.38,-12.78c-1.8,-5.23 -3.05,-14.82 -3.05,-23.41c0,-4 -0.45,-7.57 -1.17,-9.29c-0.65,-1.54 -1.17,-4.36 -1.17,-6.26c0,-1.9 -0.48,-4.41 -1.06,-5.57c-0.58,-1.16 -1.47,-3.87 -1.97,-6.02c-0.5,-2.15 -1.4,-5.14 -1.99,-6.64c-1.28,-3.25 -2.63,-12.15 -3.56,-23.44c-0.37,-4.51 -0.86,-9.08 -1.09,-10.16c-0.23,-1.07 -0.62,-3.22 -0.86,-4.78c-0.48,-3.08 -6.97,-4.96 -10.53,-3.05c-1.05,0.56 -1.56,0.52 -1.78,-0.15c-0.22,-0.67 -1.49,-0.45 -4.46,0.79c-2.28,0.95 -5.65,1.73 -7.48,1.73c-2.09,0 -4,0.55 -5.14,1.47c-1.3,1.05 -2.61,1.36 -4.64,1.09c-1.91,-0.26 -3.83,0.13 -5.9,1.19c-11.08,5.65 -22.54,-4.71 -18.99,-17.16c2.12,-7.43 4.85,-8.69 17.34,-8c8.3,0.46 9.69,0.36 10.61,-0.75c0.58,-0.7 2.08,-1.28 3.33,-1.28c1.25,0 3.51,-0.52 5.02,-1.15c1.58,-0.66 3.73,-0.95 5.07,-0.68c1.63,0.33 2.79,0.05 3.84,-0.9c0.85,-0.77 2.07,-1.15 2.78,-0.88c0.7,0.27 4.64,0.09 8.77,-0.4c5.97,-0.7 8.07,-0.68 10.29,0.13c2.84,1.04 8.25,1.11 9.76,0.13c0.46,-0.3 4.01,-0.55 7.88,-0.55c6.46,0 7.27,-0.17 9.74,-2.1c1.97,-1.54 2.96,-1.88 3.69,-1.28zM316.24,1.87c0.44,0.36 2.21,0.63 3.93,0.61c3.72,-0.05 10.56,3.56 10.52,5.55c-0.02,1.38 -2.3,9.65 -3.91,14.19c-1.93,5.47 -2.89,6.61 -6.2,7.42c-1.76,0.43 -3.53,1.31 -3.94,1.95c-0.52,0.83 -1.05,0.95 -1.81,0.39c-5.44,-3.92 -4.86,-3.77 -9.29,-2.44c-2.26,0.68 -5,1.33 -6.07,1.44l-1.95,0.22l0.2,9.22c0.12,5.59 0.81,12.03 1.76,16.37c0.86,3.94 1.56,8.3 1.56,9.7c0,1.4 0.48,3.7 1.07,5.11c2.13,5.11 3.04,8.11 3.62,11.94c0.32,2.15 0.99,5.84 1.49,8.2c0.49,2.36 0.71,5.18 0.47,6.25c-0.23,1.07 0.11,3.99 0.76,6.48c0.65,2.49 1.19,5.85 1.19,7.45c0,1.61 0.53,4.95 1.17,7.42c0.64,2.47 1.17,6.43 1.17,8.78c0,2.36 0.55,5.59 1.22,7.19c1.28,3.04 2.19,8.33 3.47,20.09c0.42,3.87 1.1,8.42 1.51,10.11c0.41,1.69 0.58,3.34 0.39,3.65c-0.19,0.31 -0.52,6.84 -0.74,14.5c-0.21,7.66 -0.71,16.21 -1.12,19.01c-0.4,2.79 -0.93,9.54 -1.18,14.99c-0.49,10.85 -1.98,17.02 -5.91,24.5c-1.28,2.43 -2.33,5.09 -2.33,5.91c0,0.82 -0.27,1.48 -0.6,1.48c-0.33,0 -1.25,1.85 -2.05,4.1c-0.8,2.26 -2.46,5.26 -3.7,6.67c-1.24,1.41 -2.25,2.89 -2.25,3.29c0,0.4 -1.32,2.07 -2.93,3.71c-1.61,1.64 -3.7,3.86 -4.63,4.91c-0.94,1.06 -2.17,2.32 -2.73,2.81c-0.57,0.48 -1.65,1.54 -2.41,2.34c-0.76,0.81 -2.52,2.41 -3.91,3.58c-1.39,1.16 -3.51,3.01 -4.71,4.1c-1.25,1.14 -3.12,1.99 -4.39,1.99c-1.21,0 -3.07,0.68 -4.14,1.52c-1.2,0.94 -2.58,1.35 -3.63,1.08c-0.93,-0.24 -2.17,-0.05 -2.75,0.43c-1.03,0.86 -6.56,2.28 -10.9,2.8c-1.21,0.15 -3.24,0.7 -4.51,1.22c-8.7,3.6 -18.05,-0.84 -29.56,-14.03c-1.9,-2.18 -3.93,-3.96 -4.49,-3.96c-0.57,0 -1.03,-0.72 -1.03,-1.6c0,-0.96 -0.94,-2.13 -2.35,-2.93c-1.29,-0.73 -2.54,-1.92 -2.77,-2.64c-0.23,-0.72 -1.25,-2.53 -2.26,-4.02c-3.01,-4.44 -9.03,-23.23 -9.03,-28.19c0,-2.35 -0.41,-5.26 -0.9,-6.48c-0.86,-2.09 -1.49,-6.62 -1.4,-10.01c0.02,-0.86 0.12,-6.84 0.22,-13.28c0.18,-11.91 0.55,-13.69 3.66,-17.19c0.76,-0.86 2.04,-2.83 2.83,-4.38c3.05,-5.95 6.9,-10.82 8.55,-10.84c1.16,-0.01 2.27,-1.2 3.84,-4.12c1.22,-2.26 2.59,-4.34 3.05,-4.62c0.46,-0.29 2.07,-1.59 3.58,-2.91c11.42,-9.98 14.88,-12.59 16.69,-12.59c1.08,0 3.17,-0.71 4.64,-1.58c1.47,-0.87 4.12,-1.7 5.89,-1.85c1.77,-0.15 3.75,-0.71 4.4,-1.25c1.8,-1.49 7.89,-1.75 9.03,-0.38c0.52,0.63 1.59,1.14 2.38,1.14c0.79,0 4.4,2.99 8.03,6.64c3.63,3.65 6.97,6.64 7.44,6.64c1.34,0 2.99,3.09 4.81,8.98c0.93,3.01 2,6.28 2.39,7.26c0.93,2.35 0.9,9.5 -0.05,14.96c-3.07,17.57 -3.3,18.46 -5.54,21.85c-1.26,1.91 -2.3,3.85 -2.3,4.33c0,0.82 -2.95,4.72 -9.07,12c-2.48,2.95 -3.11,3.3 -5.11,2.86c-1.43,-0.31 -2.75,-0.11 -3.54,0.54c-2.07,1.72 -12.31,1.23 -17.82,-0.84c-6.05,-2.28 -10.45,-9.63 -9.43,-15.76c1.23,-7.44 1.69,-9.03 3.52,-12.23c2.12,-3.7 2.84,-4.05 3.57,-1.76c0.55,1.72 3.82,2.18 4.76,0.66c0.34,-0.55 1.29,0.54 2.42,2.77c2.8,5.5 6.78,6.65 10.26,2.96c9.45,-10 11.68,-22.26 5.3,-29.21c-5.06,-5.52 -11.86,-6.73 -16.63,-2.98c-1.08,0.85 -3.25,1.78 -4.82,2.07c-1.57,0.29 -3.84,1.35 -5.06,2.37c-1.22,1.01 -2.5,1.84 -2.86,1.84c-1.39,0 -15.98,14.17 -16.94,16.45c-0.56,1.32 -1.77,3.47 -2.7,4.77c-1.49,2.09 -1.63,3.06 -1.24,8.24c0.24,3.23 0.15,6.65 -0.21,7.6c-0.66,1.73 0.02,5.77 1.97,11.77c0.56,1.72 1.26,4.71 1.56,6.64c0.6,3.87 1.98,6.94 4.77,10.62c1.01,1.33 1.84,2.82 1.84,3.32c0,0.5 0.5,0.9 1.11,0.9c1.2,0 4.35,4.58 4.37,6.34c0.01,0.96 2.98,3.39 7.13,5.84c0.79,0.47 2.06,1.39 2.82,2.05c1.74,1.51 7.74,2.48 8.43,1.37c0.35,-0.57 0.82,-0.56 1.54,0.04c0.72,0.59 1.19,0.6 1.54,0.04c0.28,-0.45 1.43,-0.82 2.56,-0.82c3.42,0 11.42,-2.48 13.23,-4.11c0.94,-0.84 2.08,-1.29 2.54,-1.01c0.46,0.29 0.84,0.21 0.84,-0.17c0,-1.08 4.33,-5.66 5.35,-5.66c2.5,0 6.25,-3.27 8.64,-7.53c0.95,-1.69 2.77,-3.76 4.04,-4.61c1.27,-0.85 2.53,-2.42 2.8,-3.49c0.26,-1.07 1.31,-3.39 2.32,-5.15c1.01,-1.76 1.84,-3.98 1.84,-4.94c0,-0.96 0.53,-2.27 1.17,-2.92c0.65,-0.64 1.17,-1.87 1.17,-2.73c0,-0.86 0.75,-3.3 1.67,-5.43c1.33,-3.08 1.57,-4.74 1.17,-8.11c-0.28,-2.41 -0.18,-4.43 0.24,-4.69c0.41,-0.25 0.72,-3.18 0.7,-6.5c-0.02,-3.32 0.35,-7.48 0.82,-9.25c1.24,-4.6 0.42,-26.34 -1.2,-32.1c-0.7,-2.49 -1.54,-7.69 -1.85,-11.55c-0.68,-8.35 -2.13,-16.53 -3.32,-18.73c-0.99,-1.83 -1.91,-9.34 -2.78,-22.7c-0.34,-5.17 -0.93,-9.9 -1.31,-10.52c-0.38,-0.62 -0.75,-2.57 -0.83,-4.34c-0.08,-1.77 -0.84,-5.12 -1.7,-7.45c-0.86,-2.33 -1.82,-5.64 -2.13,-7.36c-0.31,-1.72 -0.91,-3.54 -1.33,-4.05c-1.29,-1.56 -3.7,-18.87 -3.75,-26.96c-0.02,-2.87 -0.39,-5.45 -0.82,-5.71c-0.43,-0.27 -0.79,-1.96 -0.79,-3.76c-0.01,-1.8 -0.27,-3.67 -0.59,-4.16c-0.85,-1.31 -8.34,-2.14 -10.21,-1.14c-1.16,0.62 -1.65,0.59 -1.88,-0.1c-0.22,-0.67 -1.49,-0.45 -4.46,0.79c-2.28,0.95 -5.65,1.73 -7.48,1.73c-2.09,0 -4,0.55 -5.14,1.47c-1.3,1.05 -2.61,1.36 -4.64,1.09c-1.91,-0.26 -3.83,0.13 -5.9,1.19c-6.62,3.38 -17.51,0.12 -17.51,-5.23c0,-0.8 -0.45,-1.82 -1,-2.27c-2.22,-1.85 -0.64,-11.72 2.36,-14.72c3.06,-3.06 5.15,-3.47 14.95,-2.91c7.88,0.44 9.24,0.34 10.16,-0.77c0.58,-0.7 2.08,-1.28 3.33,-1.28c1.25,0 3.51,-0.52 5.02,-1.15c1.58,-0.66 3.73,-0.95 5.07,-0.68c1.63,0.33 2.79,0.05 3.84,-0.9c0.85,-0.77 2.07,-1.15 2.78,-0.88c0.69,0.27 4.64,0.09 8.77,-0.4c5.97,-0.7 8.07,-0.68 10.29,0.13c2.84,1.04 8.25,1.11 9.76,0.13c0.46,-0.3 4.01,-0.55 7.88,-0.55c6.46,0 7.27,-0.17 9.74,-2.1c1.58,-1.24 3.02,-1.84 3.5,-1.45zM172.79,87.98c7.97,7 9.13,14.25 3.71,23.17c-1.55,2.55 -2.81,4.87 -2.81,5.16c0,0.29 -1.23,2.14 -2.73,4.11c-1.5,1.97 -2.73,3.91 -2.73,4.32c0,0.41 -0.7,1.63 -1.56,2.73c-1.61,2.05 -2.11,6.03 -0.85,6.81c0.39,0.24 1.81,3.16 3.16,6.49c4.27,10.51 8.84,20.51 9.38,20.51c1.74,0 5.48,-11.76 5.49,-17.29c0.01,-3.72 0.87,-4.54 4.77,-4.57c4.63,-0.04 3.11,15.21 -2.57,25.94l-2.37,4.46l2.18,3.74c1.2,2.06 3,4.83 4,6.16c2.17,2.88 2.3,5.51 0.4,7.99c-2.28,2.97 -5,1.7 -7.07,-3.31c-0.94,-2.27 -2.53,-5.24 -3.54,-6.61l-1.83,-2.48l-3.81,3c-5.76,4.53 -18.86,11.35 -21.66,11.27c-3.23,-0.09 -11.12,-8.34 -12,-12.53c-1.67,-8.03 0.59,-23.47 4.23,-28.8c3.43,-5.03 5.7,-9.45 5.7,-11.09c0,-0.86 0.36,-1.79 0.81,-2.06c2.57,-1.59 4.1,-7.39 2.83,-10.75c-6.91,-18.26 -2.16,-35.64 10.43,-38.12c4.78,-0.94 5.59,-0.77 8.48,1.76zM159.26,101.89c-2.91,6.57 0.07,21.24 3.37,16.52c7.31,-10.49 10.01,-16.96 8.11,-19.42c-3.02,-3.89 -9.15,-2.34 -11.48,2.9zM157.61,141.51c-2.1,3.12 -3.45,5.76 -3.45,6.7c0,0.45 -0.8,1.9 -1.78,3.23c-4.73,6.4 -6.8,16.79 -4.36,21.82c3.46,7.13 6.25,6.84 20.05,-2.07c4.56,-2.94 4.62,-3.46 1.29,-10.45c-1.59,-3.36 -3.36,-7.16 -3.93,-8.44c-0.57,-1.29 -1.92,-4.28 -3,-6.64c-3.01,-6.57 -3.12,-6.66 -4.81,-4.15z" />
	</g>
</svg>
