<svg id="svg" version="1.1" width="512" height="512" xmlns="http://www.w3.org/2000/svg"
     xmlns:xlink="http://www.w3.org/1999/xlink">
  <g id="svgg">
    <path id="path0"
          d="M153.113 55.317 C 150.644 57.248,149.839 57.422,143.375 57.422 C 139.499 57.422,135.951 57.668,135.491 57.968 C 133.985 58.950,128.576 58.879,125.732 57.840 C 123.517 57.031,121.417 57.004,115.444 57.708 C 111.317 58.195,107.370 58.375,106.675 58.108 C 105.967 57.837,104.745 58.225,103.898 58.992 C 102.841 59.948,101.684 60.220,100.054 59.894 C 98.714 59.626,96.556 59.914,94.980 60.573 C 93.472 61.203,91.215 61.719,89.965 61.719 C 88.714 61.719,87.215 62.293,86.632 62.995 C 85.712 64.104,84.326 64.201,76.021 63.740 C 63.533 63.046,60.802 64.306,58.679 71.739 C 55.124 84.188,66.588 94.549,77.665 88.899 C 79.737 87.842,81.661 87.454,83.567 87.710 C 85.593 87.982,86.909 87.673,88.206 86.623 C 89.343 85.702,91.253 85.156,93.342 85.156 C 95.170 85.156,98.535 84.380,100.818 83.431 C 103.792 82.195,105.058 81.972,105.282 82.643 C 105.505 83.312,106.016 83.356,107.063 82.796 C 110.630 80.887,117.116 82.766,117.598 85.848 C 117.840 87.401,118.227 89.551,118.457 90.625 C 118.687 91.699,119.179 96.270,119.550 100.781 C 120.479 112.070,121.829 120.965,123.108 124.219 C 123.699 125.723,124.594 128.711,125.096 130.859 C 125.599 133.008,126.485 135.715,127.067 136.875 C 127.649 138.036,128.125 140.541,128.125 142.444 C 128.125 144.346,128.652 147.165,129.297 148.708 C 130.019 150.437,130.469 154.001,130.469 158.003 C 130.469 166.591,131.718 176.189,133.516 181.415 C 134.317 183.744,135.388 189.493,135.895 194.191 C 136.894 203.449,138.044 210.199,139.148 213.281 C 140.492 217.035,140.681 239.507,139.414 244.967 C 138.775 247.726,138.255 251.832,138.259 254.093 C 138.263 256.353,138.284 260.506,138.305 263.321 C 138.332 266.853,137.856 269.515,136.768 271.914 C 135.900 273.826,135.183 276.157,135.173 277.093 C 135.164 278.029,134.629 279.322,133.984 279.967 C 133.340 280.611,132.813 281.873,132.813 282.771 C 132.813 283.670,131.758 286.381,130.469 288.797 C 129.180 291.212,128.125 293.607,128.125 294.119 C 128.125 294.630,127.217 295.534,126.107 296.128 C 124.997 296.722,123.159 298.796,122.022 300.737 C 119.250 305.466,115.725 308.594,113.166 308.594 C 112.146 308.594,107.813 313.171,107.813 314.249 C 107.813 314.627,107.435 314.703,106.973 314.417 C 106.512 314.132,105.369 314.586,104.434 315.426 C 102.767 316.923,94.880 319.466,91.797 319.500 C 90.938 319.509,89.004 319.726,87.500 319.981 C 82.988 320.746,78.656 320.328,77.170 318.983 C 76.400 318.287,75.136 317.334,74.361 316.866 C 68.874 313.556,67.280 312.193,66.838 310.434 C 66.129 307.606,64.078 304.687,62.801 304.688 C 62.206 304.688,61.719 304.375,61.719 303.994 C 61.719 303.612,60.478 301.497,58.961 299.292 C 57.353 296.954,55.887 293.611,55.443 291.273 C 55.025 289.067,53.935 284.767,53.022 281.717 C 50.345 272.784,50.802 259.066,53.940 254.117 C 55.211 252.114,56.250 250.126,56.250 249.700 C 56.250 248.516,67.814 237.750,72.566 234.509 C 78.161 230.694,78.028 230.764,81.847 229.634 C 83.679 229.092,85.560 228.189,86.027 227.626 C 88.228 224.974,97.076 225.853,99.976 229.013 C 100.777 229.885,102.291 231.536,103.341 232.682 C 107.728 237.472,106.631 245.502,100.255 255.264 C 94.368 264.279,90.318 264.887,86.479 257.332 C 85.347 255.104,84.397 254.020,84.059 254.567 C 82.964 256.339,79.858 255.591,79.120 253.377 L 78.423 251.285 76.047 254.806 C 74.740 256.742,73.439 259.881,73.156 261.780 C 72.872 263.680,72.424 266.603,72.159 268.275 C 71.296 273.734,75.890 281.636,80.859 283.238 C 83.008 283.931,85.516 284.979,86.434 285.568 C 87.351 286.156,88.309 286.430,88.563 286.177 C 88.816 285.924,91.141 285.634,93.730 285.532 C 96.318 285.431,98.950 284.923,99.577 284.402 C 100.259 283.836,101.640 283.658,103.012 283.960 C 105.029 284.403,105.623 284.070,107.927 281.206 C 109.368 279.414,111.689 276.628,113.085 275.014 C 114.481 273.399,116.322 270.497,117.177 268.564 C 118.032 266.632,119.257 264.614,119.899 264.081 C 121.420 262.819,122.423 259.190,123.899 249.609 C 126.299 234.027,126.214 229.345,123.416 223.047 C 123.034 222.187,122.332 219.954,121.856 218.084 C 121.380 216.213,120.118 213.928,119.052 213.006 C 117.986 212.083,114.757 209.091,111.877 206.357 C 108.997 203.623,105.925 200.722,105.051 199.912 C 104.176 199.101,102.901 198.437,102.217 198.437 C 101.532 198.437,100.546 197.923,100.025 197.295 C 98.888 195.926,92.793 196.181,90.995 197.674 C 90.348 198.211,88.198 198.785,86.219 198.950 C 84.239 199.115,81.642 199.946,80.447 200.797 C 79.252 201.648,77.328 202.344,76.171 202.344 C 74.733 202.344,72.430 203.763,68.885 206.836 C 66.035 209.307,63.225 211.680,62.641 212.109 C 62.057 212.539,60.369 214.033,58.889 215.430 C 57.409 216.826,55.946 217.970,55.638 217.971 C 55.330 217.972,54.068 219.905,52.834 222.267 C 51.149 225.493,50.161 226.563,48.870 226.563 C 47.187 226.563,39.844 235.975,39.844 238.132 C 39.844 238.614,38.787 240.211,37.497 241.681 C 34.383 245.228,33.384 250.640,34.051 260.339 C 34.425 265.767,34.290 268.630,33.583 270.340 C 32.784 272.268,32.782 273.093,33.575 274.574 C 34.116 275.586,34.326 276.791,34.040 277.253 C 33.755 277.715,34.065 279.695,34.729 281.652 C 35.394 283.609,35.937 287.042,35.937 289.280 C 35.937 294.028,42.003 312.570,45.001 316.989 C 46.032 318.507,46.875 320.208,46.875 320.768 C 46.875 321.328,47.944 322.418,49.251 323.190 C 50.558 323.962,51.826 325.388,52.070 326.359 C 52.314 327.330,52.914 328.129,53.405 328.134 C 53.896 328.139,55.703 329.739,57.422 331.691 C 69.442 345.337,78.643 349.762,87.430 346.123 C 88.703 345.595,90.734 345.045,91.943 344.899 C 96.237 344.382,101.802 342.962,102.809 342.126 C 103.371 341.659,104.553 341.506,105.435 341.786 C 106.479 342.117,107.756 341.731,109.093 340.679 C 110.224 339.790,112.140 339.063,113.351 339.063 C 114.617 339.063,116.483 338.218,117.738 337.077 C 118.939 335.984,121.060 334.139,122.450 332.975 C 123.840 331.811,125.598 330.208,126.356 329.411 C 127.114 328.615,130.283 325.343,133.398 322.140 C 136.514 318.937,139.062 315.997,139.063 315.607 C 139.063 315.217,140.070 313.743,141.301 312.332 C 142.532 310.920,143.808 308.887,144.137 307.813 C 144.822 305.574,146.606 301.479,150.772 292.578 C 154.591 284.421,155.413 280.352,156.377 264.844 C 156.817 257.754,157.373 248.965,157.611 245.313 C 159.048 223.280,156.803 193.592,153.191 186.841 C 152.705 185.935,152.184 182.812,152.033 179.901 C 151.881 176.991,151.369 172.500,150.896 169.922 C 149.184 160.612,148.236 154.176,147.616 147.656 C 146.662 137.617,145.626 132.123,143.714 126.953 C 142.761 124.375,141.699 120.156,141.354 117.578 C 141.009 115.000,140.006 109.551,139.124 105.469 C 138.132 100.877,137.517 95.143,137.510 90.430 L 137.500 82.813 140.039 82.801 C 141.436 82.795,144.059 82.274,145.870 81.643 C 149.475 80.387,151.052 80.672,153.703 83.057 C 155.295 84.490,155.576 84.523,156.828 83.419 C 157.584 82.751,159.412 81.948,160.889 81.633 C 163.751 81.024,166.338 78.574,166.380 76.432 C 166.395 75.716,167.045 73.606,167.825 71.744 C 169.911 66.770,171.485 59.446,170.639 58.651 C 168.371 56.519,161.732 53.873,159.842 54.348 C 158.715 54.630,157.345 54.491,156.799 54.037 C 156.070 53.433,155.087 53.774,153.113 55.317 M343.738 55.317 C 341.268 57.248,340.463 57.422,333.999 57.422 C 330.124 57.422,326.576 57.668,326.116 57.968 C 324.610 58.950,319.201 58.879,316.357 57.840 C 314.142 57.031,312.042 57.004,306.069 57.708 C 301.942 58.195,297.995 58.375,297.300 58.108 C 296.592 57.837,295.370 58.225,294.523 58.992 C 293.466 59.948,292.309 60.220,290.679 59.894 C 289.339 59.626,287.181 59.914,285.605 60.573 C 284.097 61.203,281.840 61.719,280.590 61.719 C 279.339 61.719,277.839 62.294,277.255 62.997 C 276.336 64.105,274.977 64.207,267.098 63.762 C 257.291 63.208,255.207 63.614,252.146 66.675 C 249.144 69.677,247.560 79.550,249.785 81.396 C 250.333 81.850,250.781 82.874,250.781 83.670 C 250.781 89.021,261.674 92.274,268.290 88.899 C 270.362 87.842,272.286 87.454,274.192 87.710 C 276.218 87.982,277.534 87.673,278.831 86.623 C 279.968 85.702,281.878 85.156,283.967 85.156 C 285.795 85.156,289.160 84.380,291.443 83.431 C 294.417 82.195,295.683 81.972,295.907 82.643 C 296.138 83.336,296.630 83.362,297.787 82.742 C 299.657 81.742,307.147 82.579,307.996 83.884 C 308.312 84.369,308.575 86.239,308.582 88.040 C 308.588 89.841,308.945 91.531,309.375 91.797 C 309.805 92.062,310.172 94.632,310.191 97.507 C 310.244 105.597,312.651 122.906,313.941 124.467 C 314.360 124.975,314.958 126.797,315.269 128.516 C 315.580 130.234,316.538 133.545,317.397 135.872 C 318.256 138.199,319.020 141.551,319.095 143.321 C 319.170 145.090,319.543 147.043,319.925 147.661 C 320.306 148.279,320.896 153.013,321.234 158.181 C 322.109 171.545,323.028 179.052,324.014 180.880 C 325.201 183.080,326.651 191.261,327.334 199.609 C 327.651 203.477,328.485 208.676,329.187 211.163 C 330.814 216.923,331.629 238.662,330.390 243.263 C 329.915 245.026,329.544 249.188,329.566 252.511 C 329.588 255.834,329.272 258.759,328.864 259.011 C 328.441 259.272,328.336 261.289,328.619 263.698 C 329.015 267.062,328.775 268.721,327.449 271.804 C 326.532 273.936,325.781 276.381,325.781 277.237 C 325.781 278.094,325.254 279.322,324.609 279.967 C 323.965 280.611,323.438 281.924,323.438 282.883 C 323.438 283.843,322.608 286.065,321.595 287.822 C 320.582 289.578,319.537 291.895,319.275 292.969 C 319.012 294.043,317.753 295.613,316.479 296.458 C 315.204 297.303,313.384 299.375,312.435 301.064 C 310.041 305.323,306.287 308.594,303.791 308.594 C 302.771 308.594,298.438 313.171,298.438 314.249 C 298.438 314.627,298.060 314.703,297.598 314.417 C 297.137 314.132,295.994 314.586,295.059 315.426 C 293.252 317.049,285.253 319.531,281.831 319.531 C 280.703 319.531,279.552 319.900,279.273 320.350 C 278.923 320.917,278.449 320.905,277.734 320.313 C 277.018 319.718,276.546 319.707,276.194 320.276 C 275.503 321.395,269.507 320.423,267.768 318.911 C 267.013 318.254,265.746 317.334,264.952 316.866 C 260.798 314.419,257.831 311.990,257.822 311.030 C 257.806 309.268,254.650 304.687,253.452 304.688 C 252.842 304.688,252.344 304.281,252.344 303.785 C 252.344 303.288,251.517 301.794,250.506 300.464 C 247.713 296.789,246.334 293.717,245.737 289.844 C 245.439 287.910,244.738 284.922,244.177 283.203 C 242.224 277.208,241.547 273.169,242.206 271.436 C 242.567 270.487,242.662 267.068,242.418 263.837 C 242.026 258.655,242.172 257.685,243.658 255.597 C 244.585 254.296,245.799 252.148,246.356 250.823 C 247.314 248.545,261.904 234.375,263.292 234.375 C 263.650 234.375,264.936 233.547,266.151 232.535 C 267.366 231.522,269.642 230.459,271.210 230.170 C 272.778 229.882,274.946 228.949,276.029 228.098 C 280.801 224.344,287.596 225.562,292.660 231.078 C 299.041 238.027,296.818 250.290,287.365 260.291 C 283.879 263.979,279.899 262.831,277.104 257.333 C 275.972 255.104,275.022 254.020,274.684 254.567 C 273.745 256.085,270.469 255.630,269.922 253.906 C 269.193 251.610,268.474 251.964,266.355 255.664 C 264.521 258.865,264.065 260.448,262.832 267.893 C 261.816 274.024,266.215 281.373,272.266 283.652 C 277.778 285.728,288.020 286.212,290.091 284.494 C 290.875 283.844,292.196 283.643,293.627 283.957 C 295.631 284.397,296.259 284.046,298.739 281.097 C 304.863 273.815,307.813 269.913,307.813 269.094 C 307.813 268.622,308.846 266.676,310.110 264.768 C 312.353 261.382,312.579 260.492,315.648 242.922 C 316.601 237.465,316.625 230.315,315.698 227.966 C 315.309 226.979,314.232 223.711,313.305 220.703 C 311.487 214.806,309.836 211.719,308.498 211.719 C 308.035 211.719,304.688 208.730,301.061 205.078 C 297.433 201.426,293.820 198.438,293.031 198.438 C 292.243 198.437,291.171 197.923,290.650 197.295 C 289.514 195.927,283.418 196.181,281.622 197.672 C 280.976 198.208,278.997 198.770,277.224 198.920 C 275.451 199.070,272.799 199.902,271.331 200.768 C 269.862 201.635,267.774 202.344,266.690 202.344 C 264.877 202.344,261.420 204.951,250.000 214.930 C 248.496 216.244,246.886 217.553,246.423 217.839 C 245.959 218.125,244.585 220.205,243.369 222.461 C 241.795 225.380,240.687 226.567,239.524 226.577 C 237.872 226.591,234.028 231.466,230.977 237.416 C 230.182 238.966,228.907 240.937,228.145 241.797 C 225.037 245.298,224.659 247.071,224.483 258.984 C 224.387 265.430,224.290 271.406,224.266 272.266 C 224.173 275.655,224.804 280.186,225.661 282.277 C 226.157 283.487,226.562 286.401,226.563 288.752 C 226.563 293.712,232.583 312.504,235.594 316.941 C 236.605 318.430,237.622 320.238,237.855 320.958 C 238.087 321.677,239.333 322.865,240.623 323.596 C 242.032 324.396,242.969 325.566,242.969 326.526 C 242.969 327.406,243.433 328.125,244.001 328.125 C 244.569 328.125,246.591 329.909,248.494 332.090 C 260.005 345.285,269.359 349.725,278.055 346.123 C 279.328 345.595,281.359 345.045,282.568 344.899 C 286.912 344.376,292.432 342.957,293.467 342.098 C 294.048 341.616,295.284 341.421,296.213 341.664 C 297.259 341.937,298.642 341.525,299.839 340.584 C 300.903 339.747,302.765 339.063,303.976 339.063 C 305.242 339.063,307.108 338.218,308.363 337.077 C 309.564 335.984,311.685 334.139,313.075 332.975 C 314.465 331.811,316.223 330.201,316.981 329.396 C 317.739 328.592,318.823 327.537,319.390 327.053 C 319.957 326.568,321.187 325.306,322.124 324.248 C 323.061 323.190,325.146 320.979,326.758 319.335 C 328.369 317.691,329.688 316.020,329.688 315.622 C 329.688 315.224,330.698 313.743,331.934 312.332 C 333.170 310.920,334.834 307.920,335.633 305.664 C 336.432 303.408,337.355 301.562,337.683 301.563 C 338.012 301.563,338.281 300.895,338.281 300.079 C 338.281 299.264,339.328 296.605,340.608 294.172 C 344.542 286.693,346.032 280.522,346.522 269.676 C 346.768 264.225,347.298 257.480,347.701 254.688 C 348.103 251.895,348.606 243.342,348.817 235.681 C 349.029 228.021,349.360 221.498,349.553 221.185 C 349.746 220.873,349.570 219.230,349.161 217.535 C 348.753 215.840,348.075 211.289,347.655 207.422 C 346.379 195.662,345.466 190.371,344.189 187.330 C 343.518 185.732,342.969 182.497,342.969 180.141 C 342.969 177.785,342.441 173.833,341.797 171.358 C 341.152 168.884,340.625 165.544,340.625 163.936 C 340.625 162.329,340.091 158.975,339.439 156.483 C 338.787 153.992,338.444 151.074,338.676 150.000 C 338.908 148.926,338.695 146.113,338.202 143.750 C 337.709 141.387,337.041 137.695,336.717 135.547 C 336.140 131.714,335.234 128.720,333.101 123.606 C 332.513 122.195,332.031 119.894,332.031 118.492 C 332.031 117.090,331.329 112.724,330.470 108.789 C 329.524 104.454,328.831 98.006,328.712 92.420 L 328.516 83.203 330.469 82.988 C 331.543 82.870,334.276 82.220,336.541 81.543 C 340.974 80.219,340.397 80.067,345.835 83.984 C 346.604 84.539,347.131 84.425,347.649 83.594 C 348.050 82.949,349.821 82.069,351.584 81.639 C 354.897 80.829,355.855 79.684,357.789 74.219 C 359.397 69.673,361.672 61.412,361.696 60.028 C 361.731 58.038,354.891 54.432,351.172 54.479 C 349.453 54.501,347.683 54.225,347.238 53.866 C 346.763 53.482,345.320 54.080,343.738 55.317 M195.313 138.219 C 182.725 140.703,177.970 158.086,184.883 176.344 C 186.155 179.700,184.628 185.504,182.056 187.094 C 181.613 187.368,181.250 188.295,181.250 189.154 C 181.250 190.790,178.976 195.213,175.551 200.241 C 171.915 205.577,169.650 221.014,171.325 229.042 C 172.199 233.234,180.094 241.478,183.322 241.570 C 186.119 241.649,199.223 234.830,204.979 230.299 L 208.787 227.302 210.617 229.782 C 211.623 231.146,213.216 234.119,214.157 236.389 C 216.233 241.397,218.946 242.668,221.228 239.701 C 223.133 237.226,223.002 234.591,220.833 231.714 C 219.830 230.385,218.031 227.613,216.834 225.555 L 214.659 221.813 217.026 217.352 C 222.715 206.628,224.229 191.377,219.601 191.417 C 215.700 191.450,214.844 192.271,214.834 195.990 C 214.820 201.523,211.087 213.281,209.344 213.281 C 208.803 213.281,204.233 203.288,199.968 192.775 C 198.617 189.446,197.193 186.524,196.803 186.283 C 195.547 185.508,196.047 181.520,197.656 179.474 C 198.516 178.382,199.219 177.154,199.219 176.747 C 199.219 176.339,200.449 174.394,201.953 172.425 C 203.457 170.455,204.688 168.605,204.688 168.313 C 204.688 168.021,205.953 165.700,207.499 163.154 C 212.922 154.227,211.763 146.980,203.793 139.982 C 200.904 137.446,200.089 137.277,195.313 138.219 M201.740 150.992 C 203.641 153.446,200.936 159.921,193.629 170.410 C 190.338 175.134,187.348 160.461,190.263 153.889 C 192.586 148.649,198.725 147.100,201.740 150.992 M193.424 197.656 C 194.508 200.020,195.858 203.008,196.425 204.297 C 196.991 205.586,198.760 209.386,200.355 212.742 C 203.681 219.736,203.617 220.254,199.061 223.193 C 185.256 232.098,182.470 232.385,179.009 225.260 C 176.568 220.237,178.647 209.844,183.372 203.442 C 184.353 202.112,185.156 200.658,185.156 200.211 C 185.156 199.265,186.515 196.628,188.610 193.508 C 190.300 190.993,190.412 191.089,193.424 197.656 "
          stroke="none" fill="red" fill-rule="evenodd"></path>
  </g>
</svg>
